# xmcd
#
# Track frame offsets: 
#        150
#        13743
#        26964
#        41857
#        55001
#        67735
#        81810
#        94405
#        107162
#        121121
#        135221
#        148324
#        162343
#        176629
#        189813
#        204971
#        219250
#        232576
#        245785
#        259862
#        274162
#        288444
#
# Disc length: 4007 seconds
#
# Revision: 1
# Processed by: cddbd v1.5.2PL0 Copyright (c) Steve Scherf et al.
# Submitted via: ExactAudioCopy v1.0b3
#
DISCID=370fa516
DTITLE=Various Artist - Raunchy Business - Hot Nuts and Lollypops
DYEAR=2008
DGENRE=Blues
TTITLE0=Johnson, Lil - Sam The Hot Dog Man
TTITLE1=Johnson, Lil - My Stove's In Good Condition
TTITLE2=Johnson, Lonnie - Wipe It Off
TTITLE3=Johnson, Lonnie - The Best Jockey In Town
TTITLE4=Bogan, Lucille - Shave 'Em Dry I
TTITLE5=Bogan, Lucille - Shave 'Em Dry II
TTITLE6=Kirkman, Lillie Mai - He's Just My Size
TTITLE7=Barrel House Annie - If It Don't Fit (Don't Force It)
TTITLE8=Johnson, Lonnie and Victoria Spivey - Furniture Man Blues Part 1
TTITLE9=Johnson, Lonnie and Victoria Spivey - Furniture Man Blues Part 2
TTITLE10=Carter, Bo - My Pencil Won't Write No More
TTITLE11=Carter, Bo - Banana In Your Fruit Basket
TTITLE12=Johnson, Lil - Get 'Em From The Peanut Man (Hot Nuts)
TTITLE13=Johnson, Lil - Get 'Em From The Peanut Man (The New Hot Nuts)
TTITLE14=Mississippi Sheiks - Driving That Thing
TTITLE15=Mississippi Sheiks - Bed Spring Poker
TTITLE16=Hunter and Jenkins - Lollypop (Clean Version)
TTITLE17=Hunter and Jenkins - Meat Cuttin' Blues
TTITLE18=Moss, Buddy - You Got To Give Me Some Of It
TTITLE19=Edwards, Bernice - Butcher Shop Blues
TTITLE20=Broonzy, Big Bill - Horny Frog
TTITLE21=Hokum Boys, The - Caught Us Doing It
EXTD=
EXTT0=
EXTT1=
EXTT2=
EXTT3=
EXTT4=
EXTT5=
EXTT6=
EXTT7=
EXTT8=
EXTT9=
EXTT10=
EXTT11=
EXTT12=
EXTT13=
EXTT14=
EXTT15=
EXTT16=
EXTT17=
EXTT18=
EXTT19=
EXTT20=
EXTT21=
PLAYORDER=
